<svg width="286" height="100" viewBox="0 0 286 100" fill="none" xmlns="http://www.w3.org/2000/svg">
<path d="M48.3277 80.5511L80.5599 48.3224C82.699 46.1885 85.5973 44.99 88.619 44.99C91.6407 44.99 94.539 46.1885 96.6781 48.3224C98.8123 50.4613 100.011 53.3593 100.011 56.3807C100.011 59.402 98.8123 62.3 96.6781 64.4389L64.4459 96.6676C62.3068 98.8016 59.4085 100 56.3868 100C53.3651 100 50.4668 98.8016 48.3277 96.6676C46.1935 94.5287 44.9949 91.6307 44.9949 88.6093C44.9949 85.588 46.1935 82.69 48.3277 80.5511ZM3.33278 51.6776C5.47171 53.8102 8.36912 55.0079 11.3898 55.0079C14.4104 55.0079 17.3078 53.8102 19.4468 51.6776L51.6832 19.4447C53.8161 17.306 55.0139 14.4089 55.0139 11.3885C55.0139 8.36821 53.8161 5.47112 51.6832 3.33242C49.5441 1.19844 46.6458 0 43.6241 0C40.6024 0 37.7041 1.19844 35.565 3.33242L3.33278 35.5611C1.19858 37.7 0 40.598 0 43.6193C0 46.6407 1.19858 49.5387 3.33278 51.6776ZM37.9105 62.081C40.0496 64.215 42.9479 65.4134 45.9696 65.4134C48.9913 65.4134 51.8896 64.215 54.0287 62.081L62.0878 54.0228C64.222 51.8839 65.4206 48.9859 65.4206 45.9645C65.4206 42.9432 64.222 40.0452 62.0878 37.9063C59.9487 35.7723 57.0504 34.5739 54.0287 34.5739C51.007 34.5739 48.1087 35.7723 45.9696 37.9063L37.9105 45.9645C35.7762 48.1034 34.5777 51.0014 34.5777 54.0228C34.5777 57.0441 35.7762 59.9421 37.9105 62.081Z" fill="white"/>
<path d="M183.21 12.1935H193.513V88.9009H183.21V54.1622H143.101V88.9009H132.688V12.1935H143.101V45.1786H183.21V12.1935Z" fill="white"/>
<path d="M219.921 22.6054V12.1935H209.402V22.6054H219.921ZM219.591 88.8967V33.892H209.732V88.8967H219.591Z" fill="white"/>
<path d="M247.653 33.8878V26.5479C247.653 22.0561 250.066 19.3179 253.785 19.3179C256.823 19.3179 258.594 20.8264 259.371 22.6054H267.329C266.755 19.3959 265.076 16.4883 262.583 14.3868C260.09 12.2852 256.94 11.1221 253.679 11.0991C244.145 11.0991 237.789 17.4375 237.789 26.9873V33.8878H229.016V42.2122H237.785V88.9009H247.653V42.2122H275.519V88.9009H285.383V33.8878H247.653ZM275.194 12.1935V22.6054H285.712V12.1935H275.194Z" fill="white"/>
</svg>
