<svg width="100" height="100" viewBox="0 0 100 100" fill="none" xmlns="http://www.w3.org/2000/svg">
<path d="M48.3224 80.5511L80.5511 48.3224C82.69 46.1885 85.588 44.99 88.6093 44.99C91.6307 44.99 94.5287 46.1885 96.6676 48.3224C98.8016 50.4613 100 53.3593 100 56.3807C100 59.402 98.8016 62.3 96.6676 64.4389L64.4389 96.6676C62.3 98.8016 59.402 100 56.3807 100C53.3593 100 50.4613 98.8016 48.3224 96.6676C46.1885 94.5287 44.99 91.6307 44.99 88.6093C44.99 85.588 46.1885 82.69 48.3224 80.5511ZM3.33242 51.6776C5.47112 53.8102 8.36821 55.0079 11.3885 55.0079C14.4089 55.0079 17.306 53.8102 19.4447 51.6776L51.6776 19.4447C53.8102 17.306 55.0079 14.4089 55.0079 11.3885C55.0079 8.36821 53.8102 5.47112 51.6776 3.33242C49.5387 1.19844 46.6407 0 43.6193 0C40.598 0 37.7 1.19844 35.5611 3.33242L3.33242 35.5611C1.19844 37.7 0 40.598 0 43.6193C0 46.6407 1.19844 49.5387 3.33242 51.6776ZM37.9063 62.081C40.0452 64.215 42.9432 65.4134 45.9645 65.4134C48.9859 65.4134 51.8839 64.215 54.0228 62.081L62.081 54.0228C64.215 51.8839 65.4134 48.9859 65.4134 45.9645C65.4134 42.9432 64.215 40.0452 62.081 37.9063C59.9421 35.7723 57.0441 34.5739 54.0228 34.5739C51.0014 34.5739 48.1034 35.7723 45.9645 37.9063L37.9063 45.9645C35.7723 48.1034 34.5739 51.0014 34.5739 54.0228C34.5739 57.0441 35.7723 59.9421 37.9063 62.081Z" fill="white"/>
</svg>
