<svg width="154" height="78" viewBox="0 0 154 78" fill="none" xmlns="http://www.w3.org/2000/svg">
<path d="M50.5171 1.09441H60.8191V77.8018H50.5171V43.0631H10.4119V77.8018H0V1.09441H10.4119V34.0795H50.5171V1.09441Z" fill="white"/>
<path d="M87.2246 11.5063V1.09441H76.707V11.5063H87.2246ZM86.895 77.7976V22.7929H77.0366V77.7976H86.895Z" fill="white"/>
<path d="M114.955 22.7887V15.4488C114.955 10.957 117.368 8.2188 121.087 8.2188C124.125 8.2188 125.895 9.72734 126.673 11.5063H134.63C134.056 8.29677 132.377 5.38925 129.884 3.2877C127.391 1.18615 124.241 0.0230523 120.981 0C111.448 0 105.093 6.33841 105.093 15.8883V22.7887H96.3203V31.1131H105.088V77.8018H114.955V31.1131H142.819V77.8018H152.681V22.7887H114.955ZM142.493 1.09443V11.5063H153.011V1.09443H142.493Z" fill="white"/>
</svg>
